<?xml version="1.0" encoding="UTF-8"?>
<svg id="Layer_2" data-name="Layer 2" xmlns="http://www.w3.org/2000/svg" viewBox="0 0 226.53 226.53">
  <defs>
    <style>
      .cls-1 {
        fill: #fbac1c;
      }

      .cls-2 {
        fill: #fff;
      }

      .cls-3 {
        fill: #44537c;
        stroke: #fff;
        stroke-miterlimit: 10;
      }
    </style>
  </defs>
  <g id="Layer_1-2" data-name="Layer 1">
    <g>
      <circle class="cls-3" cx="113.27" cy="113.27" r="112.77"/>
      <g>
        <path class="cls-1" d="M118.27,124.22l7.05,6.27c-9.07,8.25-19.05,12.37-29.94,12.37-11.71,0-21.61-4.04-29.69-12.12-8.08-8.08-12.12-17.77-12.12-29.07s4.04-20.85,12.12-28.99c8.08-8.13,17.97-12.2,29.69-12.2,10.89,0,20.87,4.14,29.94,12.42l-7.05,6.27c-7.39-6.53-15.02-9.79-22.89-9.79-8.58,0-16,3.12-22.24,9.37-6.25,6.25-9.37,13.89-9.37,22.92s3.12,16.77,9.37,23c6.25,6.23,13.66,9.34,22.24,9.34,7.87,0,15.5-3.26,22.89-9.79Z"/>
        <path class="cls-1" d="M135.12,141.96V61.43h10.13v71.74h28.93v8.79h-39.06Z"/>
      </g>
      <g>
        <path class="cls-2" d="M54.14,170.42c0,2.35,1.92,4.27,4.27,4.27h6.64v2.37h-6.64c-3.66,0-6.64-2.98-6.64-6.64s2.98-6.64,6.64-6.64h6.64v2.37h-6.64c-2.35,0-4.27,1.92-4.27,4.27Z"/>
        <path class="cls-2" d="M66.94,177.06v-13.28h2.37v13.28h-2.37Z"/>
        <path class="cls-2" d="M84.47,163.8v2.37h-5.44v10.91h-2.37v-10.91h-5.44v-2.37h13.26Z"/>
        <path class="cls-2" d="M86.37,177.06h.04l-.04.04v-.04ZM99.65,163.76l-5.14,6.66-.28.36v6.26h-2.37v-6.22l-.32-.4-5.14-6.66h3l3.64,4.72,3.64-4.72h2.98ZM99.63,177.06h.02v.04l-.02-.04Z"/>
        <path class="cls-2" d="M121.75,174.71v2.37h-6.73c-.66,0-1.29-.15-1.86-.44-.83-.42-1.52-1.1-1.92-1.93-.28-.57-.44-1.2-.44-1.86v-9.05h2.37v9.28c.11.83.78,1.5,1.61,1.61l6.96.02Z"/>
        <path class="cls-2" d="M123.65,177.06v-13.28h2.37v13.28h-2.37Z"/>
        <path class="cls-2" d="M140.69,163.78l-1.21,2.37-5.56,10.91-5.56-10.91-1.21-2.37h2.66l1.21,2.37,2.9,5.69,2.9-5.69,1.21-2.37h2.66Z"/>
        <path class="cls-2" d="M141.85,177.06v-13.28h2.37v13.28h-2.37Z"/>
        <path class="cls-2" d="M159.39,163.8v13.28l-2.37-1.82-8.54-6.58v8.4h-2.37v-13.24l2.37,1.82,8.54,6.58v-8.46l2.37.02Z"/>
        <path class="cls-2" d="M163.67,170.42c0,2.35,1.92,4.27,4.27,4.27h4.27v-2.54h-4.27v-2.37h6.64v7.28h-6.64c-3.66,0-6.64-2.98-6.64-6.64s2.98-6.64,6.64-6.64h6.64v2.37h-6.64c-2.35,0-4.27,1.92-4.27,4.27Z"/>
      </g>
    </g>
  </g>
</svg>