<?xml version="1.0" encoding="UTF-8"?>
<svg id="Layer_2" data-name="Layer 2" xmlns="http://www.w3.org/2000/svg" viewBox="0 0 225.53 225.53">
  <defs>
    <style>
      .cls-1 {
        fill: #034528;
      }

      .cls-2 {
        fill: #fff578;
      }

      .cls-3 {
        fill: #d19017;
      }
    </style>
  </defs>
  <g id="Layer_1-2" data-name="Layer 1">
    <circle class="cls-2" cx="112.77" cy="112.77" r="112.77"/>
    <g>
      <path class="cls-3" d="M83.78,99.1c-5.78-1.9-10.43-4.61-13.93-8.11-3.51-3.51-5.26-7.74-5.26-12.7s1.82-9.11,5.46-12.79c3.64-3.67,8.16-5.51,13.57-5.51s9.9,1.88,13.71,5.65c1.98,1.94,3.53,4.66,4.64,8.17l-9.07,3.53c-1.12-3.02-2.13-4.98-3.02-5.88-1.83-1.86-3.92-2.8-6.27-2.8s-4.37.9-6.18,2.71-2.71,4.11-2.71,6.91.93,5.11,2.8,7.05c1.94,1.87,4.59,3.58,7.95,5.15,6.42,2.09,11.79,5.3,16.12,9.62,4.96,4.92,7.44,10.74,7.44,17.46s-2.45,12.53-7.36,17.43-10.92,7.36-18.05,7.36-13.23-2.52-18.19-7.55c-3.88-3.84-6.27-8.82-7.16-14.94l9.74-3.53c.6,5.86,2.26,10.13,4.98,12.81,2.98,2.99,6.53,4.48,10.63,4.48s7.75-1.54,10.83-4.62,4.62-6.89,4.62-11.44-1.51-8.34-4.53-11.36c-3.06-3.02-6.64-5.39-10.74-7.11Z"/>
      <path class="cls-3" d="M137.95,115.1h-9.46v26.36h-10.13V60.93h23.06c6.71.9,12.33,3.62,16.84,8.17,5.26,5.26,7.89,11.55,7.89,18.86s-2.71,13.73-8.11,19.14c-3.58,3.62-6.75,5.76-9.51,6.44l18.08,27.92h-11.7l-16.96-26.36ZM128.49,69.77v36.49h9.96c4.7,0,8.8-1.74,12.31-5.23,3.51-3.49,5.26-7.84,5.26-13.07s-1.75-9.51-5.26-12.98c-3.51-3.47-7.61-5.2-12.31-5.2h-9.96Z"/>
    </g>
    <g>
      <path class="cls-1" d="M82.44,163.15v-.08c0-.66-.55-1.21-1.21-1.21h-5.39c-.66,0-1.21.55-1.21,1.21v.08c0,.66.55,1.21,1.21,1.21h4.78c1.23,0,2.33.53,3.09,1.37.06.06.09.11.15.17.59.72.95,1.65.95,2.66,0,2.31-1.88,4.19-4.19,4.19h-4.15c-2.31,0-4.19-1.88-4.19-4.19h2.37c0,1,.82,1.82,1.82,1.82h4.15c1.01,0,1.84-.82,1.84-1.82s-.83-1.82-1.84-1.82h-4.78c-.97,0-1.84-.38-2.48-1.01-.17-.17-.32-.36-.46-.57-.4-.57-.63-1.27-.63-2.03v-.08c0-1.97,1.59-3.58,3.57-3.58h5.39c1.97,0,3.58,1.61,3.58,3.58v.08l-2.37.02Z"/>
      <path class="cls-1" d="M99.99,159.47v6.64c0,3.66-2.98,6.64-6.64,6.64s-6.64-2.98-6.64-6.64v-6.64h2.37v6.64c0,2.35,1.92,4.27,4.27,4.27s4.27-1.92,4.27-4.27v-6.64h2.37Z"/>
      <path class="cls-1" d="M115.17,159.49v13.28l-2.37-1.82-8.53-6.58v8.4h-2.37v-13.24l2.37,1.82,8.53,6.58v-8.46l2.37.02Z"/>
      <path class="cls-1" d="M130.35,159.49v13.28l-2.37-1.82-8.53-6.58v8.4h-2.37v-13.24l2.37,1.82,8.53,6.58v-8.46l2.37.02Z"/>
      <path class="cls-1" d="M131.49,172.75h.04l-.04.04v-.04ZM144.77,159.45l-5.14,6.66-.28.36v6.26h-2.37v-6.22l-.32-.4-5.14-6.66h3l3.64,4.72,3.64-4.72h2.98ZM144.75,172.75h.02v.04l-.02-.04Z"/>
      <path class="cls-1" d="M74.14,193.16l1.21,2.37h-2.66l-1.21-2.37-1.27-2.48-.06-.11c-.42-.68-1.16-1.14-2.01-1.14h-2.37v6.11h-2.37v-13.28h8.38c.99,0,1.88.4,2.52,1.04.65.66,1.04,1.55,1.04,2.54,0,1.44-.85,2.69-2.09,3.26-.32.15-.66.25-1.02.28l1.9,3.77ZM71.79,187.05c.17,0,.34-.04.49-.11.44-.19.72-.63.72-1.1,0-.44-.23-.74-.36-.87-.15-.15-.44-.34-.85-.34h-6.01v2.45l6.01-.02Z"/>
      <path class="cls-1" d="M79.65,185.82v1.23h8.53v2.37h-8.53v2.5c0,.66.55,1.21,1.21,1.21h9.69v2.37h-9.69c-1.97,0-3.57-1.61-3.57-3.58v-6.11c0-1.97,1.59-3.58,3.57-3.58h9.69v2.37h-9.69c-.66,0-1.21.55-1.21,1.21Z"/>
      <path class="cls-1" d="M102.64,185.92v-.08c0-.66-.55-1.21-1.21-1.21h-5.39c-.66,0-1.21.55-1.21,1.21v.08c0,.66.55,1.21,1.21,1.21h4.78c1.23,0,2.33.53,3.09,1.37.06.06.09.11.15.17.59.72.95,1.65.95,2.66,0,2.31-1.88,4.19-4.19,4.19h-4.15c-2.31,0-4.19-1.88-4.19-4.19h2.37c0,1,.82,1.82,1.82,1.82h4.15c1.01,0,1.84-.82,1.84-1.82s-.83-1.82-1.84-1.82h-4.78c-.97,0-1.84-.38-2.48-1.01-.17-.17-.32-.36-.46-.57-.4-.57-.63-1.27-.63-2.03v-.08c0-1.97,1.59-3.58,3.57-3.58h5.39c1.97,0,3.58,1.61,3.58,3.58v.08l-2.37.02Z"/>
      <path class="cls-1" d="M119.72,188.88c0,3.66-2.98,6.64-6.64,6.64s-6.64-2.98-6.64-6.64,2.98-6.64,6.64-6.64,6.64,2.98,6.64,6.64ZM117.34,188.88c0-2.35-1.92-4.27-4.27-4.27s-4.27,1.92-4.27,4.27,1.92,4.27,4.27,4.27,4.27-1.92,4.27-4.27Z"/>
      <path class="cls-1" d="M131.86,193.16l1.21,2.37h-2.66l-1.21-2.37-1.27-2.48-.06-.11c-.42-.68-1.16-1.14-2.01-1.14h-2.37v6.11h-2.37v-13.28h8.38c.99,0,1.88.4,2.52,1.04.65.66,1.04,1.55,1.04,2.54,0,1.44-.85,2.69-2.09,3.26-.32.15-.66.25-1.02.28l1.9,3.77ZM129.51,187.05c.17,0,.34-.04.49-.11.44-.19.72-.63.72-1.1,0-.44-.23-.74-.36-.87-.15-.15-.44-.34-.85-.34h-6.01v2.45l6.01-.02Z"/>
      <path class="cls-1" d="M147.62,182.26v2.37h-5.44v10.91h-2.37v-10.91h-5.44v-2.37h13.26Z"/>
      <path class="cls-1" d="M159.73,185.92v-.08c0-.66-.55-1.21-1.21-1.21h-5.39c-.66,0-1.21.55-1.21,1.21v.08c0,.66.55,1.21,1.21,1.21h4.78c1.23,0,2.33.53,3.09,1.37.06.06.09.11.15.17.59.72.95,1.65.95,2.66,0,2.31-1.88,4.19-4.19,4.19h-4.15c-2.31,0-4.19-1.88-4.19-4.19h2.37c0,1,.82,1.82,1.82,1.82h4.15c1.01,0,1.84-.82,1.84-1.82s-.83-1.82-1.84-1.82h-4.78c-.97,0-1.84-.38-2.48-1.01-.17-.17-.32-.36-.46-.57-.4-.57-.63-1.27-.63-2.03v-.08c0-1.97,1.59-3.58,3.57-3.58h5.39c1.97,0,3.58,1.61,3.58,3.58v.08l-2.37.02Z"/>
    </g>
  </g>
</svg>