<?xml version="1.0" encoding="UTF-8"?>
<svg id="Layer_2" data-name="Layer 2" xmlns="http://www.w3.org/2000/svg" viewBox="0 0 225.53 225.53">
  <defs>
    <style>
      .cls-1 {
        fill: #9b509f;
      }

      .cls-2 {
        fill: #fff;
      }
    </style>
  </defs>
  <g id="Layer_1-2" data-name="Layer 1">
    <circle class="cls-1" cx="112.77" cy="112.77" r="112.77"/>
    <g>
      <path class="cls-2" d="M84.98,53.87h10.13v56.97c-.86,6.3-3.56,11.73-8.11,16.28-5.26,5.3-11.77,7.95-19.53,7.95s-14.42-2.68-19.75-8.03c-5.33-5.35-8-11.7-8-19.05v-54.11h10.13v54.11c0,5.15,1.75,9.49,5.26,13.01s7.63,5.29,12.37,5.29,8.79-1.76,12.28-5.29,5.23-7.86,5.23-13.01v-54.11Z"/>
      <path class="cls-2" d="M116.88,122.98c-8.02-8.02-12.03-17.68-12.03-28.99s4.06-20.91,12.17-29.04c8.11-8.13,18.01-12.2,29.69-12.2s21.63,4.07,29.74,12.2c8.11,8.13,12.17,17.81,12.17,29.04s-4.08,21.04-12.25,29.21c-5.75,5.78-11.38,8.86-16.9,9.23,7.2,3.02,11.9,4.68,14.1,4.98,1.86-.04,2.98-2.18,3.36-6.44h10.24c-1.19,9.03-5.41,13.82-12.65,14.38-5.3,0-10.17-1.34-14.61-4.03-3.99-2.09-6.94-3.19-8.84-3.3-1.46.07-2.57.46-3.33,1.15-.76.69-1.31,1.66-1.65,2.91s-.6,2.7-.78,4.34h-10.24c1.04-5.56,3.58-9.98,7.61-13.26-10.59-.19-19.19-3.58-25.8-10.19ZM146.7,61.59c-8.58,0-16,3.14-22.27,9.43s-9.4,13.94-9.4,22.97,3.13,16.79,9.4,23.05,13.69,9.4,22.27,9.4,16.06-3.13,22.33-9.4,9.4-13.95,9.4-23.05-3.13-16.69-9.4-22.97-13.71-9.43-22.33-9.43Z"/>
    </g>
    <g>
      <path class="cls-2" d="M86.91,164.07v6.64c0,3.66-2.98,6.64-6.64,6.64s-6.64-2.98-6.64-6.64v-6.64h2.37v6.64c0,2.35,1.92,4.27,4.27,4.27s4.27-1.92,4.27-4.27v-6.64h2.37Z"/>
      <path class="cls-2" d="M102.09,164.08v13.28l-2.37-1.82-8.54-6.58v8.4h-2.37v-13.24l2.37,1.82,8.54,6.58v-8.46l2.37.02Z"/>
      <path class="cls-2" d="M103.99,177.34v-13.28h2.37v13.28h-2.37Z"/>
      <path class="cls-2" d="M121.52,170.7c0,1.63-.59,3.11-1.56,4.27h1.56v2.37h-6.62c-3.66,0-6.64-2.98-6.64-6.64s2.98-6.64,6.64-6.64,6.64,2.98,6.64,6.64h-.02ZM119.15,170.7c0-2.35-1.92-4.27-4.27-4.27s-4.27,1.92-4.27,4.27,1.92,4.27,4.27,4.27h.11c2.29-.06,4.15-1.95,4.15-4.27Z"/>
      <path class="cls-2" d="M136.71,164.07v6.64c0,3.66-2.98,6.64-6.64,6.64s-6.64-2.98-6.64-6.64v-6.64h2.37v6.64c0,2.35,1.92,4.27,4.27,4.27s4.27-1.92,4.27-4.27v-6.64h2.37Z"/>
      <path class="cls-2" d="M140.99,167.65v1.23h8.54v2.37h-8.54v2.5c0,.66.55,1.21,1.21,1.21h9.69v2.37h-9.69c-1.97,0-3.57-1.61-3.57-3.58v-6.11c0-1.97,1.59-3.58,3.57-3.58h9.69v2.37h-9.69c-.66,0-1.21.55-1.21,1.21Z"/>
      <path class="cls-2" d="M92.2,190.51v-.08c0-.66-.55-1.21-1.21-1.21h-5.39c-.66,0-1.21.55-1.21,1.21v.08c0,.66.55,1.21,1.21,1.21h4.78c1.23,0,2.33.53,3.09,1.37.06.06.09.11.15.17.59.72.95,1.65.95,2.66,0,2.31-1.88,4.19-4.19,4.19h-4.15c-2.31,0-4.19-1.88-4.19-4.19h2.37c0,1,.82,1.82,1.82,1.82h4.15c1,0,1.84-.82,1.84-1.82s-.83-1.82-1.84-1.82h-4.78c-.97,0-1.84-.38-2.49-1-.17-.17-.32-.36-.46-.57-.4-.57-.63-1.27-.63-2.03v-.08c0-1.97,1.59-3.58,3.57-3.58h5.39c1.97,0,3.58,1.61,3.58,3.58v.08l-2.37.02Z"/>
      <path class="cls-2" d="M109.11,186.85v2.37h-5.44v10.91h-2.37v-10.91h-5.44v-2.37h13.26Z"/>
      <path class="cls-2" d="M120.08,200.11h-2.66l-1.21-2.37-2.9-5.69-2.9,5.69-1.21,2.37h-2.66l1.21-2.37,5.56-10.91,5.56,10.91,1.21,2.37Z"/>
      <path class="cls-2" d="M117.56,200.11h.04l-.04.04v-.04ZM130.83,186.81l-5.14,6.66-.28.36v6.26h-2.37v-6.22l-.32-.4-5.14-6.66h3l3.64,4.72,3.64-4.72h2.98ZM130.81,200.11h.02v.04l-.02-.04Z"/>
      <path class="cls-2" d="M141.14,190.51v-.08c0-.66-.55-1.21-1.21-1.21h-5.39c-.66,0-1.21.55-1.21,1.21v.08c0,.66.55,1.21,1.21,1.21h4.78c1.23,0,2.33.53,3.09,1.37.06.06.09.11.15.17.59.72.95,1.65.95,2.66,0,2.31-1.88,4.19-4.19,4.19h-4.15c-2.31,0-4.19-1.88-4.19-4.19h2.37c0,1,.82,1.82,1.82,1.82h4.15c1,0,1.84-.82,1.84-1.82s-.83-1.82-1.84-1.82h-4.78c-.97,0-1.84-.38-2.49-1-.17-.17-.32-.36-.46-.57-.4-.57-.63-1.27-.63-2.03v-.08c0-1.97,1.59-3.58,3.57-3.58h5.39c1.97,0,3.58,1.61,3.58,3.58v.08l-2.37.02Z"/>
    </g>
  </g>
</svg>