<?xml version="1.0" encoding="UTF-8"?>
<svg id="Layer_2" data-name="Layer 2" xmlns="http://www.w3.org/2000/svg" viewBox="0 0 49.43 9.04">
  <defs>
    <style>
      .cls-1 {
        fill: #fb701e;
      }
    </style>
  </defs>
  <g id="Layer_1-2" data-name="Layer 1">
    <path class="cls-1" d="M15.89,3.83l-1.2-.78c-1.82-1.19-4.17-1.18-5.99,0l-1.14.75V.36h-2.4v3.19h-2.76V.36H0v8.54h2.4v-3.36h2.76v3.36h2.4v-2.1l.85-.56c.05.46.16.89.4,1.26.29.47.69.84,1.2,1.11.51.27,1.09.4,1.73.4s1.22-.13,1.73-.4c.5-.27.9-.64,1.19-1.11.23-.38.34-.8.39-1.25l.85.55v2.09h2.35V.12h-2.35v3.71h0ZM12.59,6.47c-.08.16-.19.28-.34.36s-.32.13-.52.13-.36-.04-.51-.13-.26-.2-.35-.36c-.08-.16-.13-.33-.13-.53s.04-.39.13-.55c.08-.16.2-.28.35-.37.15-.09.32-.13.51-.13s.37.04.52.13.26.2.34.36c.08.16.13.34.13.55s-.04.39-.12.55h-.01Z"/>
    <rect class="cls-1" x="19.36" y="3" width="2.35" height="5.9"/>
    <path class="cls-1" d="M20.53,0c-.34,0-.63.12-.86.35-.23.23-.34.53-.34.87s.11.63.34.87c.23.24.51.35.86.35s.64-.12.86-.35c.22-.24.34-.53.34-.87s-.11-.63-.34-.87C21.17.11,20.88,0,20.53,0Z"/>
    <path class="cls-1" d="M26.66,3.19c-.09-.05-.18-.1-.29-.14-.31-.12-.64-.17-1-.17-.58,0-1.09.13-1.53.39-.44.26-.78.62-1.02,1.09s-.37,1-.37,1.6.12,1.13.37,1.59.58.82,1.02,1.09c.44.26.95.4,1.53.4.35,0,.68-.07,1-.2.13-.05.24-.12.35-.19v.28h2.29V.12h-2.35s0,3.07,0,3.07ZM26.8,5.95c0,.2-.04.38-.13.53s-.2.27-.34.35-.32.13-.52.13c-.18,0-.35-.04-.5-.13s-.27-.21-.35-.36-.13-.32-.13-.52.04-.36.13-.52c.09-.15.21-.27.35-.36.15-.09.32-.13.51-.13s.36.04.51.13.26.21.34.35c.08.15.12.32.12.52h0Z"/>
    <path class="cls-1" d="M34.04,3.33c-.15-.11-.3-.21-.49-.28-.29-.12-.61-.17-.95-.17-.55,0-1.04.13-1.46.39-.42.26-.76.62-1,1.09-.24.46-.36,1-.36,1.6s.12,1.13.36,1.59.57.82,1,1.09c.42.26.91.4,1.46.4.34,0,.66-.06.95-.17.18-.07.34-.17.49-.28v.33h2.29V3h-2.29v.33ZM33.85,6.68c-.18.19-.42.28-.71.28-.18,0-.35-.04-.5-.13s-.27-.21-.35-.36-.13-.32-.13-.52.04-.36.13-.52c.09-.15.21-.27.35-.36.15-.09.32-.13.51-.13s.36.04.51.13c.15.09.26.21.34.35.08.15.12.32.12.52,0,.3-.09.54-.27.73h0Z"/>
    <polygon class="cls-1" points="37.36 4.87 39.41 4.87 37.15 7.48 37.15 8.9 42.64 8.9 42.64 7.03 40.45 7.03 42.71 4.43 42.71 3 37.36 3 37.36 4.87"/>
    <path class="cls-1" d="M49.04,4.28c-.27-.45-.64-.8-1.11-1.05s-1.02-.38-1.63-.38-1.18.13-1.68.4-.89.63-1.17,1.1c-.28.46-.43,1-.43,1.6s.15,1.15.44,1.61c.29.47.7.83,1.22,1.09s1.12.39,1.81.39c.54,0,1.01-.08,1.43-.25.25-.1.47-.24.67-.4l-1.19-1.19c-.06.04-.12.08-.18.1-.21.09-.46.14-.74.14s-.53-.06-.72-.17c-.19-.11-.34-.28-.44-.5,0-.03-.02-.07-.03-.1l4.04-.03c.04-.18.07-.33.08-.46,0-.13.02-.26.02-.38,0-.58-.13-1.09-.4-1.54v.02ZM45.29,5.25s.02-.07.03-.1c.09-.22.23-.4.4-.52.18-.12.38-.18.62-.18s.42.05.58.16.27.26.34.46c.02.05.03.11.04.16,0,0-2.01.02-2.01.02Z"/>
  </g>
</svg>