<?xml version="1.0" encoding="UTF-8"?>
<svg id="Layer_2" data-name="Layer 2" xmlns="http://www.w3.org/2000/svg" viewBox="0 0 12.77 6.87">
  <defs>
    <style>
      .cls-1 {
        fill: #fff;
      }
    </style>
  </defs>
  <g id="Layer_1-2" data-name="Layer 1">
    <path class="cls-1" d="M12.77,3.12l-3.42-2.23c-1.82-1.19-4.17-1.18-5.99,0L0,3.13l1.38,2.09,1.69-1.12c.05.46.16.89.39,1.26.29.47.69.84,1.2,1.11.51.27,1.09.4,1.73.4s1.22-.13,1.73-.4c.5-.27.9-.64,1.19-1.11.23-.38.34-.8.39-1.25l1.7,1.11,1.37-2.09h0ZM7.25,4.33c-.08.16-.19.28-.34.36s-.32.13-.52.13-.36-.04-.51-.13-.26-.2-.35-.36c-.08-.16-.13-.33-.13-.53s.04-.39.13-.55c.08-.16.2-.28.35-.37s.32-.13.51-.13.37.04.52.13.26.2.34.36c.08.16.13.34.13.55s-.04.39-.12.55h-.01Z"/>
  </g>
</svg>